<svg width="179" height="179" viewBox="0 0 179 179" fill="none" xmlns="http://www.w3.org/2000/svg">
<ellipse cx="89.871" cy="89.4931" rx="89.0245" ry="89.4931" fill="#FF8300"/>
<path d="M117.554 126.665H146.644V115.029C146.644 105.39 138.829 97.5755 129.19 97.5755C123.631 97.5755 118.678 100.175 115.482 104.225M117.554 126.665H59.3761M117.554 126.665V115.029C117.554 111.211 116.819 107.565 115.482 104.225M59.3761 126.665H30.287V115.029C30.287 105.39 38.1012 97.5755 47.7405 97.5755C53.3 97.5755 58.2525 100.175 61.4487 104.225M59.3761 126.665V115.029C59.3761 111.211 60.1117 107.565 61.4487 104.225M61.4487 104.225C65.7379 93.509 76.2177 85.9398 88.4653 85.9398C100.713 85.9398 111.193 93.509 115.482 104.225M105.919 51.0328C105.919 60.6721 98.1046 68.4863 88.4653 68.4863C78.826 68.4863 71.0118 60.6721 71.0118 51.0328C71.0118 41.3935 78.826 33.5793 88.4653 33.5793C98.1046 33.5793 105.919 41.3935 105.919 51.0328ZM140.826 68.4863C140.826 74.9125 135.616 80.122 129.19 80.122C122.764 80.122 117.554 74.9125 117.554 68.4863C117.554 62.0601 122.764 56.8507 129.19 56.8507C135.616 56.8507 140.826 62.0601 140.826 68.4863ZM59.3761 68.4863C59.3761 74.9125 54.1667 80.122 47.7405 80.122C41.3143 80.122 36.1048 74.9125 36.1048 68.4863C36.1048 62.0601 41.3143 56.8507 47.7405 56.8507C54.1667 56.8507 59.3761 62.0601 59.3761 68.4863Z" stroke="white" stroke-width="5" stroke-linecap="round" stroke-linejoin="round"/>
</svg>
