<svg width="179" height="179" viewBox="0 0 179 179" fill="none" xmlns="http://www.w3.org/2000/svg">
<ellipse cx="89.4931" cy="89.8358" rx="89.4931" ry="89.0245" fill="#FF8300"/>
<path d="M72.1674 97.8293C71.191 96.853 69.6081 96.853 68.6318 97.8293C67.6555 98.8056 67.6555 100.389 68.6318 101.365L72.1674 97.8293ZM82.5038 111.701L80.736 113.469C81.7123 114.445 83.2953 114.445 84.2716 113.469L82.5038 111.701ZM108.48 89.2606C109.456 88.2843 109.456 86.7014 108.48 85.7251C107.504 84.7488 105.921 84.7488 104.944 85.7251L108.48 89.2606ZM128.421 57.2323V129.858H133.421V57.2323H128.421ZM118.816 139.462H58.2954V144.462H118.816V139.462ZM48.6912 129.858V57.2323H43.6912V129.858H48.6912ZM58.2954 47.6281H70.3996V42.6281H58.2954V47.6281ZM106.712 47.6281H118.816V42.6281H106.712V47.6281ZM58.2954 139.462C52.9911 139.462 48.6912 135.162 48.6912 129.858H43.6912C43.6912 137.923 50.2297 144.462 58.2954 144.462V139.462ZM128.421 129.858C128.421 135.162 124.121 139.462 118.816 139.462V144.462C126.882 144.462 133.421 137.923 133.421 129.858H128.421ZM133.421 57.2323C133.421 49.1667 126.882 42.6281 118.816 42.6281V47.6281C124.121 47.6281 128.421 51.9281 128.421 57.2323H133.421ZM48.6912 57.2323C48.6912 51.9281 52.9911 47.6281 58.2954 47.6281V42.6281C50.2297 42.6281 43.6912 49.1667 43.6912 57.2323H48.6912ZM68.6318 101.365L80.736 113.469L84.2716 109.934L72.1674 97.8293L68.6318 101.365ZM84.2716 113.469L108.48 89.2606L104.944 85.7251L80.736 109.934L84.2716 113.469ZM82.5038 35.5239H94.608V30.5239H82.5038V35.5239ZM94.608 54.7323H82.5038V59.7323H94.608V54.7323ZM82.5038 54.7323C77.1995 54.7323 72.8996 50.4324 72.8996 45.1281H67.8996C67.8996 53.1938 74.4381 59.7323 82.5038 59.7323V54.7323ZM104.212 45.1281C104.212 50.4324 99.9123 54.7323 94.608 54.7323V59.7323C102.674 59.7323 109.212 53.1938 109.212 45.1281H104.212ZM94.608 35.5239C99.9123 35.5239 104.212 39.8239 104.212 45.1281H109.212C109.212 37.0625 102.674 30.5239 94.608 30.5239V35.5239ZM82.5038 30.5239C74.4381 30.5239 67.8996 37.0625 67.8996 45.1281H72.8996C72.8996 39.8239 77.1995 35.5239 82.5038 35.5239V30.5239Z" fill="white"/>
</svg>
