<svg width="179" height="179" viewBox="0 0 179 179" fill="none" xmlns="http://www.w3.org/2000/svg">
<ellipse cx="89.507" cy="89.8358" rx="89.4931" ry="89.0245" fill="#FF8300"/>
<path d="M72.2522 123.884H105.825M89.0384 23.3015V30.4859M134.76 42.24L129.68 47.3201M153.699 87.9611H146.514M31.5633 87.961H24.3789M48.3971 47.3201L43.317 42.24M63.6376 113.362C49.6091 99.3339 49.6091 76.5893 63.6376 62.5608C77.6661 48.5323 100.411 48.5323 114.439 62.5608C128.468 76.5893 128.468 99.3339 114.439 113.362L110.509 117.293C105.962 121.84 103.407 128.007 103.407 134.437V138.252C103.407 146.188 96.9741 152.621 89.0384 152.621C81.1027 152.621 74.6696 146.188 74.6696 138.252V134.437C74.6696 128.007 72.1151 121.84 67.5682 117.293L63.6376 113.362Z" stroke="white" stroke-width="5" stroke-linecap="round" stroke-linejoin="round"/>
</svg>
