<svg width="50" height="41" viewBox="0 0 50 41" fill="none" xmlns="http://www.w3.org/2000/svg">
<path d="M36.5047 38.3531H47.8437V33.8175C47.8437 30.0601 44.7977 27.0141 41.0403 27.0141C38.8732 27.0141 36.9427 28.0273 35.6968 29.6059M36.5047 38.3531H13.8268M36.5047 38.3531V33.8175C36.5047 32.3293 36.218 30.908 35.6968 29.6059M13.8268 38.3531H2.48779V33.8175C2.48779 30.0601 5.53377 27.0141 9.29118 27.0141C11.4583 27.0141 13.3888 28.0273 14.6347 29.6059M13.8268 38.3531V33.8175C13.8268 32.3293 14.1135 30.908 14.6347 29.6059M14.6347 29.6059C16.3066 25.429 20.3916 22.4785 25.1657 22.4785C29.9399 22.4785 34.0249 25.429 35.6968 29.6059M31.9691 8.87174C31.9691 12.6291 28.9231 15.6751 25.1657 15.6751C21.4083 15.6751 18.3624 12.6291 18.3624 8.87174C18.3624 5.11434 21.4083 2.06836 25.1657 2.06836C28.9231 2.06836 31.9691 5.11434 31.9691 8.87174ZM45.5759 15.6751C45.5759 18.1801 43.5452 20.2107 41.0403 20.2107C38.5354 20.2107 36.5047 18.1801 36.5047 15.6751C36.5047 13.1702 38.5354 11.1395 41.0403 11.1395C43.5452 11.1395 45.5759 13.1702 45.5759 15.6751ZM13.8268 15.6751C13.8268 18.1801 11.7961 20.2107 9.29118 20.2107C6.78624 20.2107 4.75559 18.1801 4.75559 15.6751C4.75559 13.1702 6.78624 11.1395 9.29118 11.1395C11.7961 11.1395 13.8268 13.1702 13.8268 15.6751Z" stroke="white" stroke-width="4" stroke-linecap="round" stroke-linejoin="round"/>
</svg>
