<svg width="50" height="56" viewBox="0 0 50 56" fill="none" xmlns="http://www.w3.org/2000/svg">
<path d="M12.1949 38.2474C6.58045 38.2474 2.02905 33.696 2.02905 28.0816C2.02905 23.2349 5.42079 19.1804 9.96019 18.1621C9.75937 17.265 9.65342 16.332 9.65342 15.3743C9.65342 8.35624 15.3427 2.66699 22.3607 2.66699C28.5093 2.66699 33.6379 7.03385 34.8143 12.8353C34.8987 12.8337 34.9832 12.8328 35.068 12.8328C42.086 12.8328 47.7753 18.5221 47.7753 25.5401C47.7753 31.6878 43.4097 36.8158 37.6094 37.9932M17.2778 45.8718L24.9022 53.4961M24.9022 53.4961L32.5265 45.8718M24.9022 53.4961V22.9986" stroke="white" stroke-width="4" stroke-linecap="round" stroke-linejoin="round"/>
</svg>
