<svg width="162" height="162" viewBox="0 0 162 162" fill="none" xmlns="http://www.w3.org/2000/svg">
<circle cx="81" cy="81" r="81" fill="#FF8300"/>
<g clip-path="url(#clip0_342_3044)">
<path d="M71.3895 35.2408C73.9553 24.6717 88.9866 24.6717 91.5524 35.2408C93.2099 42.0683 101.032 45.3084 107.032 41.6526C116.32 35.9935 126.948 46.6221 121.289 55.91C117.634 61.9098 120.874 69.732 127.701 71.3895C138.27 73.9553 138.27 88.9866 127.701 91.5524C120.874 93.2099 117.634 101.032 121.289 107.032C126.948 116.32 116.32 126.948 107.032 121.289C101.032 117.634 93.2099 120.874 91.5524 127.701C88.9866 138.27 73.9553 138.27 71.3895 127.701C69.732 120.874 61.9098 117.634 55.91 121.289C46.6222 126.948 35.9935 116.32 41.6526 107.032C45.3084 101.032 42.0683 93.2099 35.2408 91.5524C24.6717 88.9866 24.6717 73.9553 35.2408 71.3895C42.0683 69.732 45.3084 61.9098 41.6526 55.91C35.9935 46.6221 46.6221 35.9935 55.91 41.6526C61.9098 45.3084 69.732 42.0683 71.3895 35.2408Z" stroke="white" stroke-width="4" stroke-linecap="round" stroke-linejoin="round"/>
<path d="M99.5233 81.4709C99.5233 91.441 91.441 99.5233 81.4709 99.5233C71.5009 99.5233 63.4186 91.441 63.4186 81.4709C63.4186 71.5009 71.5009 63.4186 81.4709 63.4186C91.441 63.4186 99.5233 71.5009 99.5233 81.4709Z" stroke="white" stroke-width="4" stroke-linecap="round" stroke-linejoin="round"/>
</g>
<defs>
<clipPath id="clip0_342_3044">
<rect width="123.384" height="123.384" fill="white" transform="translate(12.2441 12.2441)"/>
</clipPath>
</defs>
</svg>
