<svg width="162" height="166" viewBox="0 0 162 166" fill="none" xmlns="http://www.w3.org/2000/svg">
<circle cx="81" cy="84.7675" r="81" fill="#FF8300"/>
<path d="M59.9583 138V96M59.9583 96L45.125 110M59.9583 96L74.7917 110M97.0417 110V152M97.0417 152L111.875 138M97.0417 152L82.2083 138" stroke="white" stroke-width="6" stroke-linecap="round" stroke-linejoin="round"/>
<path d="M38.125 70.625C38.125 81.0263 46.557 89.4583 56.9583 89.4583H99.3333C112.335 89.4583 122.875 78.9183 122.875 65.9166C122.875 52.9149 112.335 42.375 99.3333 42.375C99.1763 42.375 99.0196 42.3765 98.8633 42.3796C96.6839 31.6317 87.1826 23.5416 75.7917 23.5416C62.79 23.5416 52.25 34.0816 52.25 47.0833C52.25 48.8576 52.4463 50.586 52.8183 52.2481C44.4086 54.1345 38.125 61.6459 38.125 70.625Z" stroke="white" stroke-width="5" stroke-linecap="round" stroke-linejoin="round"/>
</svg>
