<svg width="162" height="162" viewBox="0 0 162 162" fill="none" xmlns="http://www.w3.org/2000/svg">
<circle cx="81" cy="81" r="81" fill="#FF8300"/>
<path d="M37.2031 46.936C37.2031 41.5609 41.5605 37.2035 46.9357 37.2035H62.8934C64.988 37.2035 66.8476 38.5438 67.5099 40.5309L74.7987 62.3972C75.5645 64.6947 74.5245 67.2056 72.3584 68.2886L61.374 73.7809C66.7378 85.6776 76.3221 95.2618 88.2188 100.626L93.711 89.6412C94.794 87.4752 97.305 86.4351 99.6024 87.2009L121.469 94.4897C123.456 95.1521 124.796 97.0117 124.796 99.1063V115.064C124.796 120.439 120.439 124.797 115.064 124.797H110.197C69.8837 124.797 37.2031 92.1159 37.2031 51.8023V46.936Z" stroke="white" stroke-width="4" stroke-linecap="round" stroke-linejoin="round"/>
</svg>
