<svg width="163" height="162" viewBox="0 0 163 162" fill="none" xmlns="http://www.w3.org/2000/svg">
<circle cx="81.314" cy="81" r="81" fill="#FF8300"/>
<path d="M39.1067 86.3721V78.6501C42.4347 75.9981 45.6587 73.3461 48.7787 70.6941C51.9507 68.0421 54.7847 65.4161 57.2807 62.8161C59.7767 60.1641 61.7527 57.5901 63.2087 55.0941C64.6647 52.5981 65.3927 50.1801 65.3927 47.8401C65.3927 46.3841 65.1327 45.0581 64.6127 43.8621C64.0927 42.6141 63.2607 41.6261 62.1167 40.8981C61.0247 40.1181 59.5687 39.7281 57.7487 39.7281C55.9287 39.7281 54.3947 40.1441 53.1467 40.9761C51.8987 41.8081 50.9627 42.9261 50.3387 44.3301C49.7147 45.6821 49.4027 47.2161 49.4027 48.9321H39.1847C39.3407 44.9281 40.2507 41.5741 41.9147 38.8701C43.5787 36.1661 45.8147 34.1641 48.6227 32.8641C51.4307 31.5121 54.5767 30.8361 58.0607 30.8361C61.9087 30.8361 65.1587 31.5641 67.8107 33.0201C70.4627 34.4241 72.4647 36.3481 73.8167 38.7921C75.2207 41.2361 75.9227 44.0441 75.9227 47.2161C75.9227 49.6081 75.4807 51.9481 74.5967 54.2361C73.7647 56.5241 72.5687 58.7601 71.0087 60.9441C69.5007 63.0761 67.7847 65.1301 65.8607 67.1061C63.9367 69.0821 61.9347 70.9801 59.8547 72.8001C57.7747 74.5681 55.7467 76.2321 53.7707 77.7921H77.2487V86.3721H39.1067ZM107.033 86.3721V76.4661H80.201V68.1201L105.629 31.7721H117.563V67.3401H124.661V76.4661H117.563V86.3721H107.033ZM91.433 67.3401H107.735V43.3941L91.433 67.3401ZM56.8727 127.372V92.8121H63.3527V106.78C64.1527 105.532 65.2087 104.524 66.5207 103.756C67.8647 102.988 69.4167 102.604 71.1767 102.604C73.1927 102.604 74.8887 103.036 76.2647 103.9C77.6407 104.732 78.6807 105.948 79.3847 107.548C80.0887 109.148 80.4407 111.132 80.4407 113.5V127.372H74.0087V114.076C74.0087 112.156 73.6087 110.684 72.8087 109.66C72.0087 108.604 70.7447 108.076 69.0167 108.076C67.9607 108.076 67.0007 108.332 66.1367 108.844C65.2727 109.356 64.5847 110.108 64.0727 111.1C63.5927 112.06 63.3527 113.212 63.3527 114.556V127.372H56.8727ZM96.4326 127.948C94.2246 127.948 92.3046 127.596 90.6726 126.892C89.0406 126.188 87.7606 125.212 86.8326 123.964C85.9046 122.716 85.3766 121.308 85.2486 119.74H91.6806C91.8406 120.348 92.1126 120.908 92.4966 121.42C92.8806 121.9 93.3926 122.284 94.0326 122.572C94.6726 122.86 95.4406 123.004 96.3366 123.004C97.2006 123.004 97.9046 122.892 98.4486 122.668C98.9926 122.412 99.3926 122.076 99.6486 121.66C99.9366 121.244 100.081 120.812 100.081 120.364C100.081 119.692 99.8886 119.18 99.5046 118.828C99.1206 118.444 98.5606 118.14 97.8246 117.916C97.0886 117.692 96.1926 117.468 95.1366 117.244C93.9846 117.02 92.8486 116.748 91.7286 116.428C90.6406 116.076 89.6646 115.644 88.8006 115.132C87.9366 114.62 87.2486 113.964 86.7366 113.164C86.2246 112.364 85.9686 111.372 85.9686 110.188C85.9686 108.748 86.3526 107.468 87.1206 106.348C87.8886 105.196 89.0086 104.284 90.4806 103.612C91.9526 102.94 93.7286 102.604 95.8086 102.604C98.7206 102.604 101.025 103.26 102.721 104.572C104.417 105.884 105.425 107.692 105.745 109.996H99.6486C99.4566 109.26 99.0246 108.684 98.3526 108.268C97.7126 107.82 96.8486 107.596 95.7606 107.596C94.6086 107.596 93.7286 107.804 93.1206 108.22C92.5126 108.636 92.2086 109.18 92.2086 109.852C92.2086 110.3 92.4006 110.7 92.7846 111.052C93.2006 111.404 93.7766 111.708 94.5126 111.964C95.2486 112.188 96.1446 112.412 97.2006 112.636C99.0566 113.02 100.689 113.468 102.097 113.98C103.505 114.46 104.609 115.164 105.409 116.092C106.209 116.988 106.609 118.3 106.609 120.028C106.609 121.564 106.193 122.94 105.361 124.156C104.529 125.34 103.345 126.268 101.809 126.94C100.305 127.612 98.5126 127.948 96.4326 127.948Z" fill="white"/>
</svg>
